<svg width="1024" height="1024" viewBox="0 0 1024 1024" fill="none" xmlns="http://www.w3.org/2000/svg">
  <defs>
    <linearGradient id="bg" x1="136" y1="112" x2="888" y2="912" gradientUnits="userSpaceOnUse">
      <stop offset="0" stop-color="#1FDEA4"/>
      <stop offset="0.55" stop-color="#10B981"/>
      <stop offset="1" stop-color="#087864"/>
    </linearGradient>
    <linearGradient id="panel" x1="250" y1="216" x2="774" y2="808" gradientUnits="userSpaceOnUse">
      <stop offset="0" stop-color="#F8FFFC"/>
      <stop offset="1" stop-color="#DDF8EE"/>
    </linearGradient>
    <filter id="outerShadow" x="62" y="70" width="900" height="900" filterUnits="userSpaceOnUse" color-interpolation-filters="sRGB">
      <feDropShadow dx="0" dy="28" stdDeviation="36" flood-color="#063D34" flood-opacity="0.28"/>
      <feDropShadow dx="0" dy="5" stdDeviation="9" flood-color="#063D34" flood-opacity="0.18"/>
    </filter>
    <filter id="panelShadow" x="188" y="174" width="648" height="684" filterUnits="userSpaceOnUse" color-interpolation-filters="sRGB">
      <feDropShadow dx="0" dy="16" stdDeviation="20" flood-color="#045A49" flood-opacity="0.20"/>
    </filter>
  </defs>

  <rect x="96" y="96" width="832" height="832" rx="206" fill="url(#bg)" filter="url(#outerShadow)"/>
  <path d="M182 684C252 800 368 860 512 860C656 860 772 800 842 684" stroke="#A7F6D4" stroke-width="22" stroke-linecap="round" opacity="0.28"/>
  <path d="M182 340C252 224 368 164 512 164C656 164 772 224 842 340" stroke="#EFFFF8" stroke-width="18" stroke-linecap="round" opacity="0.22"/>

  <g filter="url(#panelShadow)">
    <rect x="226" y="206" width="572" height="612" rx="156" fill="url(#panel)"/>
    <rect x="250" y="230" width="524" height="564" rx="132" stroke="#FFFFFF" stroke-width="18" opacity="0.72"/>
  </g>

  <path d="M410 708V316H558C650 316 708 374 708 454C708 534 649 590 557 590H498V708H410Z" fill="#073A31"/>
  <path d="M498 502H548C590 502 616 484 616 454C616 424 590 406 548 406H498V502Z" fill="#EFFFF7"/>

  <circle cx="338" cy="380" r="29" fill="#10B981"/>
  <circle cx="338" cy="512" r="29" fill="#10B981"/>
  <circle cx="338" cy="644" r="29" fill="#10B981"/>
  <path d="M334 380H266" stroke="#10B981" stroke-width="30" stroke-linecap="round"/>
  <path d="M334 512H266" stroke="#10B981" stroke-width="30" stroke-linecap="round"/>
  <path d="M334 644H266" stroke="#10B981" stroke-width="30" stroke-linecap="round"/>
</svg>
