<svg xmlns="http://www.w3.org/2000/svg" width="1280" height="940" viewBox="0 0 1280 940">
  <defs>
    <style>
      .bg { fill: #f6f8fb; }
      .card { fill: #fff; stroke: rgba(0,0,0,.08); stroke-width: 1; }
      .bar { fill: #2387bd; }
      .title { font: 700 24px -apple-system, BlinkMacSystemFont, "SF Pro Display", sans-serif; fill: #1c1e21; }
      .label { font: 650 16px -apple-system, BlinkMacSystemFont, "SF Pro Text", sans-serif; fill: #1c1e21; }
      .desc { font: 13px -apple-system, BlinkMacSystemFont, "SF Pro Text", sans-serif; fill: #6b7280; }
      .num { font: 500 24px -apple-system, BlinkMacSystemFont, "SF Pro Text", sans-serif; fill: #fff; }
      .whiteStroke { fill: none; stroke: #fff; stroke-width: 1.75; stroke-linecap: round; stroke-linejoin: round; }
      .whiteStrokeThin { fill: none; stroke: #fff; stroke-width: 1.45; stroke-linecap: round; stroke-linejoin: round; }
      .whiteFill { fill: #fff; }
      .blackStroke { fill: none; stroke: #111827; stroke-width: 1.75; stroke-linecap: round; stroke-linejoin: round; }
      .blackStrokeThin { fill: none; stroke: #111827; stroke-width: 1.45; stroke-linecap: round; stroke-linejoin: round; }
      .blackFill { fill: #111827; }
    </style>

    <symbol id="b1" viewBox="0 0 18 18">
      <circle class="whiteFill" cx="4.2" cy="6" r="1.3"/>
      <circle class="whiteFill" cx="4.2" cy="12" r="1.3"/>
      <path class="whiteStroke" d="M7 4.6h4.6a3.1 3.1 0 0 1 0 6.2H9.2v2.6"/>
      <path class="whiteStroke" d="M9.2 10.8H7"/>
    </symbol>
    <symbol id="b1b" viewBox="0 0 18 18">
      <circle class="blackFill" cx="4.2" cy="6" r="1.3"/>
      <circle class="blackFill" cx="4.2" cy="12" r="1.3"/>
      <path class="blackStroke" d="M7 4.6h4.6a3.1 3.1 0 0 1 0 6.2H9.2v2.6"/>
      <path class="blackStroke" d="M9.2 10.8H7"/>
    </symbol>

    <symbol id="b2" viewBox="0 0 18 18">
      <circle class="whiteFill" cx="4.1" cy="6" r="1.25"/>
      <circle class="whiteFill" cx="4.1" cy="12" r="1.25"/>
      <path class="whiteStroke" d="M7.1 4.4h4.2a3.2 3.2 0 0 1 0 6.4H7.1"/>
      <path class="whiteStroke" d="M7.1 7.6h3.8"/>
    </symbol>
    <symbol id="b2b" viewBox="0 0 18 18">
      <circle class="blackFill" cx="4.1" cy="6" r="1.25"/>
      <circle class="blackFill" cx="4.1" cy="12" r="1.25"/>
      <path class="blackStroke" d="M7.1 4.4h4.2a3.2 3.2 0 0 1 0 6.4H7.1"/>
      <path class="blackStroke" d="M7.1 7.6h3.8"/>
    </symbol>

    <symbol id="b3" viewBox="0 0 18 18">
      <circle class="whiteFill" cx="4.2" cy="6" r="1.2"/>
      <circle class="whiteFill" cx="4.2" cy="12" r="1.2"/>
      <rect class="whiteStroke" x="7" y="4.4" width="7" height="6.4" rx="2"/>
      <path class="whiteStrokeThin" d="M9.2 13.4h3.6"/>
    </symbol>
    <symbol id="b3b" viewBox="0 0 18 18">
      <circle class="blackFill" cx="4.2" cy="6" r="1.2"/>
      <circle class="blackFill" cx="4.2" cy="12" r="1.2"/>
      <rect class="blackStroke" x="7" y="4.4" width="7" height="6.4" rx="2"/>
      <path class="blackStrokeThin" d="M9.2 13.4h3.6"/>
    </symbol>

    <symbol id="b4" viewBox="0 0 18 18">
      <circle class="whiteFill" cx="4.3" cy="5.8" r="1.2"/>
      <circle class="whiteFill" cx="4.3" cy="12.2" r="1.2"/>
      <path class="whiteStroke" d="M8 4.4h3.2a3.2 3.2 0 0 1 0 6.4H8V4.4Z"/>
      <circle class="whiteFill" cx="12.6" cy="13.1" r="1.15"/>
    </symbol>
    <symbol id="b4b" viewBox="0 0 18 18">
      <circle class="blackFill" cx="4.3" cy="5.8" r="1.2"/>
      <circle class="blackFill" cx="4.3" cy="12.2" r="1.2"/>
      <path class="blackStroke" d="M8 4.4h3.2a3.2 3.2 0 0 1 0 6.4H8V4.4Z"/>
      <circle class="blackFill" cx="12.6" cy="13.1" r="1.15"/>
    </symbol>

    <symbol id="b5" viewBox="0 0 18 18">
      <path class="whiteStroke" d="M4.4 5.2v.1M4.4 11.9v.1"/>
      <path class="whiteStroke" d="M7.2 4.2h3.7a3.5 3.5 0 0 1 0 7H7.2"/>
      <path class="whiteStroke" d="M10.6 11.2v2.8"/>
    </symbol>
    <symbol id="b5b" viewBox="0 0 18 18">
      <path class="blackStroke" d="M4.4 5.2v.1M4.4 11.9v.1"/>
      <path class="blackStroke" d="M7.2 4.2h3.7a3.5 3.5 0 0 1 0 7H7.2"/>
      <path class="blackStroke" d="M10.6 11.2v2.8"/>
    </symbol>

    <symbol id="b6" viewBox="0 0 18 18">
      <circle class="whiteFill" cx="4.4" cy="6" r="1.2"/>
      <circle class="whiteFill" cx="4.4" cy="12" r="1.2"/>
      <path class="whiteStroke" d="M8 5h4a2.6 2.6 0 0 1 0 5.2H8"/>
      <path class="whiteStroke" d="M8 7.6h4"/>
      <path class="whiteStrokeThin" d="M8 13.2h5"/>
    </symbol>
    <symbol id="b6b" viewBox="0 0 18 18">
      <circle class="blackFill" cx="4.4" cy="6" r="1.2"/>
      <circle class="blackFill" cx="4.4" cy="12" r="1.2"/>
      <path class="blackStroke" d="M8 5h4a2.6 2.6 0 0 1 0 5.2H8"/>
      <path class="blackStroke" d="M8 7.6h4"/>
      <path class="blackStrokeThin" d="M8 13.2h5"/>
    </symbol>

    <symbol id="b7" viewBox="0 0 18 18">
      <circle class="whiteFill" cx="4.1" cy="6" r="1.2"/>
      <circle class="whiteFill" cx="4.1" cy="12" r="1.2"/>
      <path class="whiteStroke" d="M7.6 4.4h3.1a3.2 3.2 0 1 1 0 6.4H7.6V4.4Z"/>
      <path class="whiteStrokeThin" d="M13.4 12.6 15 14.2"/>
    </symbol>
    <symbol id="b7b" viewBox="0 0 18 18">
      <circle class="blackFill" cx="4.1" cy="6" r="1.2"/>
      <circle class="blackFill" cx="4.1" cy="12" r="1.2"/>
      <path class="blackStroke" d="M7.6 4.4h3.1a3.2 3.2 0 1 1 0 6.4H7.6V4.4Z"/>
      <path class="blackStrokeThin" d="M13.4 12.6 15 14.2"/>
    </symbol>

    <symbol id="b8" viewBox="0 0 18 18">
      <circle class="whiteFill" cx="4.2" cy="6" r="1.2"/>
      <circle class="whiteFill" cx="4.2" cy="12" r="1.2"/>
      <path class="whiteStroke" d="M7.5 4.5h4.2a2.8 2.8 0 0 1 0 5.6H7.5"/>
      <circle class="whiteFill" cx="13.3" cy="13" r="1.2"/>
      <path class="whiteStrokeThin" d="M11.2 11.1 12.5 12.2"/>
    </symbol>
    <symbol id="b8b" viewBox="0 0 18 18">
      <circle class="blackFill" cx="4.2" cy="6" r="1.2"/>
      <circle class="blackFill" cx="4.2" cy="12" r="1.2"/>
      <path class="blackStroke" d="M7.5 4.5h4.2a2.8 2.8 0 0 1 0 5.6H7.5"/>
      <circle class="blackFill" cx="13.3" cy="13" r="1.2"/>
      <path class="blackStrokeThin" d="M11.2 11.1 12.5 12.2"/>
    </symbol>

    <symbol id="b9" viewBox="0 0 18 18">
      <circle class="whiteFill" cx="4" cy="6" r="1.2"/>
      <circle class="whiteFill" cx="4" cy="12" r="1.2"/>
      <path class="whiteStroke" d="M7.2 4.5h4.1a3.1 3.1 0 0 1 0 6.2H7.2"/>
      <path class="whiteStrokeThin" d="M7.2 13.2h6.2"/>
      <path class="whiteStrokeThin" d="M7.2 15h3.8"/>
    </symbol>
    <symbol id="b9b" viewBox="0 0 18 18">
      <circle class="blackFill" cx="4" cy="6" r="1.2"/>
      <circle class="blackFill" cx="4" cy="12" r="1.2"/>
      <path class="blackStroke" d="M7.2 4.5h4.1a3.1 3.1 0 0 1 0 6.2H7.2"/>
      <path class="blackStrokeThin" d="M7.2 13.2h6.2"/>
      <path class="blackStrokeThin" d="M7.2 15h3.8"/>
    </symbol>

    <symbol id="b10" viewBox="0 0 18 18">
      <circle class="whiteFill" cx="3.8" cy="6" r="1.15"/>
      <circle class="whiteFill" cx="3.8" cy="12" r="1.15"/>
      <path class="whiteStroke" d="M6.8 4.4h3.6a3.3 3.3 0 0 1 0 6.6H8.7"/>
      <path class="whiteStroke" d="M12.6 11.3 15 13.7"/>
      <path class="whiteStroke" d="M15 11.3v2.4h-2.4"/>
    </symbol>
    <symbol id="b10b" viewBox="0 0 18 18">
      <circle class="blackFill" cx="3.8" cy="6" r="1.15"/>
      <circle class="blackFill" cx="3.8" cy="12" r="1.15"/>
      <path class="blackStroke" d="M6.8 4.4h3.6a3.3 3.3 0 0 1 0 6.6H8.7"/>
      <path class="blackStroke" d="M12.6 11.3 15 13.7"/>
      <path class="blackStroke" d="M15 11.3v2.4h-2.4"/>
    </symbol>
  </defs>

  <rect class="bg" width="1280" height="940"/>
  <text class="title" x="40" y="54">Colon Port 风格候选</text>
  <text class="desc" x="40" y="82">全部围绕“: + 端口/入口”展开。每张卡左上是真实菜单栏尺寸，右侧是放大预览。</text>

  <g transform="translate(40 120)">
    <rect class="card" width="230" height="150" rx="16"/>
    <rect class="bar" x="18" y="22" width="106" height="40" rx="8"/>
    <use href="#b1" x="38" y="33" width="18" height="18"/><text class="num" x="64" y="53">1</text>
    <use href="#b1b" x="146" y="27" width="72" height="72"/>
    <text class="label" x="22" y="104">B1 Classic P</text>
    <text class="desc" x="22" y="128">最接近上一版 B。</text>
  </g>

  <g transform="translate(290 120)">
    <rect class="card" width="230" height="150" rx="16"/>
    <rect class="bar" x="18" y="22" width="106" height="40" rx="8"/>
    <use href="#b2" x="38" y="33" width="18" height="18"/><text class="num" x="64" y="53">1</text>
    <use href="#b2b" x="146" y="27" width="72" height="72"/>
    <text class="label" x="22" y="104">B2 Loop Port</text>
    <text class="desc" x="22" y="128">更圆，更像入口。</text>
  </g>

  <g transform="translate(540 120)">
    <rect class="card" width="230" height="150" rx="16"/>
    <rect class="bar" x="18" y="22" width="106" height="40" rx="8"/>
    <use href="#b3" x="38" y="33" width="18" height="18"/><text class="num" x="64" y="53">1</text>
    <use href="#b3b" x="146" y="27" width="72" height="72"/>
    <text class="label" x="22" y="104">B3 Port Box</text>
    <text class="desc" x="22" y="128">像端口小面板。</text>
  </g>

  <g transform="translate(790 120)">
    <rect class="card" width="230" height="150" rx="16"/>
    <rect class="bar" x="18" y="22" width="106" height="40" rx="8"/>
    <use href="#b4" x="38" y="33" width="18" height="18"/><text class="num" x="64" y="53">1</text>
    <use href="#b4b" x="146" y="27" width="72" height="72"/>
    <text class="label" x="22" y="104">B4 Port Dot</text>
    <text class="desc" x="22" y="128">加状态点，偏监控。</text>
  </g>

  <g transform="translate(1040 120)">
    <rect class="card" width="200" height="150" rx="16"/>
    <rect class="bar" x="18" y="22" width="96" height="40" rx="8"/>
    <use href="#b5" x="36" y="33" width="18" height="18"/><text class="num" x="62" y="53">1</text>
    <use href="#b5b" x="130" y="27" width="58" height="58"/>
    <text class="label" x="22" y="104">B5 Thin</text>
    <text class="desc" x="22" y="128">更轻，但可能弱。</text>
  </g>

  <g transform="translate(40 315)">
    <rect class="card" width="230" height="150" rx="16"/>
    <rect class="bar" x="18" y="22" width="106" height="40" rx="8"/>
    <use href="#b6" x="38" y="33" width="18" height="18"/><text class="num" x="64" y="53">1</text>
    <use href="#b6b" x="146" y="27" width="72" height="72"/>
    <text class="label" x="22" y="104">B6 Terminal Line</text>
    <text class="desc" x="22" y="128">端口 + 命令行感。</text>
  </g>

  <g transform="translate(290 315)">
    <rect class="card" width="230" height="150" rx="16"/>
    <rect class="bar" x="18" y="22" width="106" height="40" rx="8"/>
    <use href="#b7" x="38" y="33" width="18" height="18"/><text class="num" x="64" y="53">1</text>
    <use href="#b7b" x="146" y="27" width="72" height="72"/>
    <text class="label" x="22" y="104">B7 Port Probe</text>
    <text class="desc" x="22" y="128">像检测端口。</text>
  </g>

  <g transform="translate(540 315)">
    <rect class="card" width="230" height="150" rx="16"/>
    <rect class="bar" x="18" y="22" width="106" height="40" rx="8"/>
    <use href="#b8" x="38" y="33" width="18" height="18"/><text class="num" x="64" y="53">1</text>
    <use href="#b8b" x="146" y="27" width="72" height="72"/>
    <text class="label" x="22" y="104">B8 Route Dot</text>
    <text class="desc" x="22" y="128">端口后接服务点。</text>
  </g>

  <g transform="translate(790 315)">
    <rect class="card" width="230" height="150" rx="16"/>
    <rect class="bar" x="18" y="22" width="106" height="40" rx="8"/>
    <use href="#b9" x="38" y="33" width="18" height="18"/><text class="num" x="64" y="53">1</text>
    <use href="#b9b" x="146" y="27" width="72" height="72"/>
    <text class="label" x="22" y="104">B9 List Port</text>
    <text class="desc" x="22" y="128">端口 + 列表监控。</text>
  </g>

  <g transform="translate(1040 315)">
    <rect class="card" width="200" height="150" rx="16"/>
    <rect class="bar" x="18" y="22" width="96" height="40" rx="8"/>
    <use href="#b10" x="36" y="33" width="18" height="18"/><text class="num" x="62" y="53">1</text>
    <use href="#b10b" x="130" y="27" width="58" height="58"/>
    <text class="label" x="22" y="104">B10 Open Port</text>
    <text class="desc" x="22" y="128">强调可打开服务。</text>
  </g>

  <rect class="card" x="40" y="535" width="1200" height="250" rx="18"/>
  <text class="label" x="66" y="574">推荐排序</text>
  <text class="desc" x="66" y="606">1. B3 Port Box：最像“端口入口”，小尺寸下不容易看成字母 P。</text>
  <text class="desc" x="66" y="634">2. B2 Loop Port：最接近 B 的思路，同时更简洁圆润。</text>
  <text class="desc" x="66" y="662">3. B8 Route Dot：有“端口连接到服务”的含义，但比当前小飞机图更稳。</text>
  <text class="desc" x="66" y="690">4. B1 Classic P：开发者可能能联想到 Port，但仍可能被看成 P 标识。</text>
  <text class="desc" x="66" y="718">我会避开 B5/B10：小尺寸下要么太细，要么符号太复杂。</text>
  <text class="desc" x="66" y="746">你选编号，比如 B3，我就把它写进 electron/main.ts 并重启 App。</text>
</svg>
